
        <svg xmlns="http://www.w3.org/2000/svg" xmlns:xlink="http://www.w3.org/1999/xlink" version="1.1" width="3187.5" 
        height="1059.5321284858123" viewBox="0 0 3187.5 1059.5321284858123">
			
			<g transform="scale(9.375) translate(10, 10)">
				<defs id="SvgjsDefs1746"><linearGradient id="SvgjsLinearGradient1753"><stop id="SvgjsStop1754" stop-color="#ef4136" offset="0"></stop><stop id="SvgjsStop1755" stop-color="#fbb040" offset="1"></stop></linearGradient><linearGradient id="SvgjsLinearGradient1756"><stop id="SvgjsStop1757" stop-color="#ef4136" offset="0"></stop><stop id="SvgjsStop1758" stop-color="#fbb040" offset="1"></stop></linearGradient><linearGradient id="SvgjsLinearGradient1759"><stop id="SvgjsStop1760" stop-color="#ef4136" offset="0"></stop><stop id="SvgjsStop1761" stop-color="#fbb040" offset="1"></stop></linearGradient></defs><g id="SvgjsG1747" featureKey="symbolFeature-0" transform="matrix(1.3966479256359994,0,0,1.3966479256359994,-19.83240027764174,-23.463684085126985)" fill="url(#SvgjsLinearGradient1753)"><path xmlns="http://www.w3.org/2000/svg" d="M41.7,37.7L27.6,55.5c-1.3-0.8-2.9-1.3-4.6-1.3c-4.8,0-8.8,3.9-8.8,8.8s3.9,8.8,8.8,8.8s8.8-3.9,8.8-8.8  c0-2.4-1-4.6-2.6-6.2l14.1-17.9c1.7,1.1,3.6,1.8,5.7,2v25c-4.4,0.5-7.8,4.2-7.8,8.7c0,4.8,3.9,8.8,8.8,8.8s8.8-3.9,8.8-8.8  c0-4.5-3.4-8.2-7.8-8.7v-25c2-0.2,4-0.8,5.6-1.9l14.1,17.9c-1.5,1.6-2.5,3.7-2.5,6.1c0,4.8,3.9,8.8,8.8,8.8s8.8-3.9,8.8-8.8  s-3.9-8.8-8.8-8.8c-1.7,0-3.4,0.5-4.7,1.4L58.2,37.8c2.4-2.2,3.9-5.4,3.9-8.9c0-6.7-5.4-12.1-12.1-12.1s-12.1,5.4-12.1,12.1  C37.9,32.3,39.3,35.4,41.7,37.7z M29.7,63c0,3.7-3,6.7-6.7,6.7s-6.7-3-6.7-6.7s3-6.7,6.7-6.7S29.7,59.3,29.7,63z M77,56.2  c3.7,0,6.7,3,6.7,6.7s-3,6.7-6.7,6.7s-6.7-3-6.7-6.7S73.3,56.2,77,56.2z M56.7,74.6c0,3.7-3,6.7-6.7,6.7s-6.7-3-6.7-6.7  c0-3.7,3-6.7,6.7-6.7c0,0,0,0,0,0c0,0,0,0,0,0C53.7,67.9,56.7,70.9,56.7,74.6z M50,18.7c5.6,0,10.1,4.5,10.1,10.1S55.6,38.9,50,38.9  s-10.1-4.5-10.1-10.1S44.4,18.7,50,18.7z"></path></g><g id="SvgjsG1748" featureKey="nameFeature-0" transform="matrix(0.9402030784707182,0,0,0.9402030784707182,118.87175738181217,13.454303757498305)" fill="url(#SvgjsLinearGradient1756)"><path d="M15.36 14.32 c-6.76 0 -12.04 5.08 -12.04 11.96 s5.28 12.04 12.04 12.04 c4.8 0 8.04 -2.2 10.2 -5.8 l1.64 1.08 c-2.44 4.12 -6.28 6.72 -11.84 6.72 c-7.8 0 -14.16 -5.92 -14.16 -14.04 s6.36 -14 14.16 -14 c5.56 0 9.52 2.64 11.92 6.76 l-1.72 1.12 c-2.16 -3.64 -5.52 -5.84 -10.2 -5.84 z M39.64 19.68 c5.8 0 10.28 4.48 10.28 10.28 c0 5.84 -4.48 10.32 -10.28 10.32 c-5.84 0 -10.32 -4.48 -10.32 -10.32 c0 -5.8 4.48 -10.28 10.32 -10.28 z M39.64 21.56 c-4.8 0 -8.36 3.68 -8.36 8.44 c0 4.72 3.56 8.4 8.36 8.4 c4.76 0 8.32 -3.68 8.32 -8.4 c0 -4.76 -3.56 -8.44 -8.32 -8.44 z M54.480000000000004 20 l0 2.92 c0.96 -1.64 3 -3.24 6.28 -3.24 c3.08 0 5.44 1.52 6.56 4.04 c1.08 -2.04 3.28 -4.04 7 -4.04 c4.4 0 7.28 3.04 7.28 7.76 l0 12.56 l-1.96 0 l0 -12.4 c0 -3.8 -2.08 -6.04 -5.52 -6.04 c-3.6 0 -6.08 2.32 -6.08 6.28 l0 12.16 l-1.96 0 l0 -12.4 c0 -3.8 -2.08 -6.04 -5.52 -6.04 c-3.68 0 -6.08 2.44 -6.08 6.56 l0 11.88 l-1.96 0 l0 -20 l1.96 0 z M86.76 20 l0 2.92 c0.96 -1.64 3 -3.24 6.28 -3.24 c3.08 0 5.44 1.52 6.56 4.04 c1.08 -2.04 3.28 -4.04 7 -4.04 c4.4 0 7.28 3.04 7.28 7.76 l0 12.56 l-1.96 0 l0 -12.4 c0 -3.8 -2.08 -6.04 -5.52 -6.04 c-3.6 0 -6.08 2.32 -6.08 6.28 l0 12.16 l-1.96 0 l0 -12.4 c0 -3.8 -2.08 -6.04 -5.52 -6.04 c-3.68 0 -6.08 2.44 -6.08 6.56 l0 11.88 l-1.96 0 l0 -20 l1.96 0 z M126.80000000000001 21.56 c-4.8 0 -8.36 3.68 -8.36 8.44 c0 4.72 3.56 8.4 8.36 8.4 c4.72 0 8.36 -3.64 8.36 -8.4 c0 -4.8 -3.64 -8.44 -8.36 -8.44 z M135.04 40 l0 -3.96 c-1.64 2.48 -4.52 4.24 -8.36 4.24 c-5.72 0 -10.2 -4.48 -10.2 -10.32 c0 -5.8 4.48 -10.28 10.2 -10.28 c3.84 0 6.68 1.72 8.36 4.12 l0 -3.8 l1.96 0 l0 20 l-1.96 0 z M148.84 19.68 c4.68 0 7.76 3.16 7.76 8.08 l0 12.24 l-1.96 0 l0 -12 c0 -4.04 -2.24 -6.44 -6 -6.44 c-3.92 0 -6.48 2.64 -6.48 7 l0 11.44 l-1.96 0 l0 -20 l1.96 0 l0 3.04 c1.16 -1.8 3.2 -3.36 6.68 -3.36 z M169.51999999999998 38.4 c4.72 0 8.36 -3.64 8.36 -8.44 c0 -4.76 -3.64 -8.4 -8.36 -8.4 c-4.8 0 -8.36 3.68 -8.36 8.4 c0 4.76 3.56 8.44 8.36 8.44 z M177.76 39.96 l0 -3.92 c-1.64 2.48 -4.44 4.24 -8.36 4.24 c-5.72 0 -10.2 -4.48 -10.2 -10.28 c0 -5.84 4.48 -10.32 10.2 -10.32 c3.84 0 6.72 1.76 8.36 4.24 l0 -11.32 l1.96 0 l0 27.36 l-1.96 0 z M201.95999999999998 35.28 c-1.84 3.04 -4.76 5 -9.24 5 c-6.04 0 -10.4 -4.48 -10.4 -10.32 c0 -5.8 4.4 -10.28 10.24 -10.28 c5.96 0 10.12 4.56 10.12 9.68 c0 0.64 -0.04 1.08 -0.08 1.32 l-18.2 0 c0.32 4.88 4 7.68 8.32 7.68 c3.96 0 6.16 -1.56 7.72 -4.12 z M192.56 21.56 c-4.08 0 -7.68 2.84 -8.16 7.32 l16.24 0 c-0.4 -4.52 -3.96 -7.32 -8.08 -7.32 z M213.92000000000002 19.68 l0 2.16 c-3.84 0 -6.68 2.92 -6.68 7.28 l0 10.88 l-1.96 0 l0 -20 l1.96 0 l0 3.72 c0.76 -1.52 2.92 -4.04 6.68 -4.04 z"></path></g><g id="SvgjsG1749" featureKey="sloganFeature-0" transform="matrix(0.5269745160829911,0,0,0.5269745160829911,119.36763093249385,58.417824820937135)" fill="url(#SvgjsLinearGradient1759)"><path d="M4.6 6.699999999999999 c-0.84 0 -1.52 0.68 -1.52 1.52 l0 3.8 c0.2 -0.24 0.56 -0.4 0.98 -0.4 l6.58 0 l0 1.46 c0 0.14 -0.12 0.26 -0.26 0.26 l-7.3 0 l0 3.42 c0 0.84 0.68 1.52 1.52 1.52 l6.48 0 c0.14 0 0.26 0.12 0.26 0.26 l0 1.46 l-6.74 0 c-1.88 0 -3.4 -1.52 -3.4 -3.4 l0 -8.22 c0 -1.88 1.52 -3.4 3.4 -3.4 l6.74 0 l0 1.46 c0 0.14 -0.12 0.26 -0.26 0.26 l-6.48 0 z M21.5 13.7 l1.82 3.58 c-0.2 -1.56 -0.2 -2.82 -0.3 -4.24 l0 -7.8 c0 -0.14 0.12 -0.26 0.26 -0.26 l1.62 0 l0 15.02 l-1.74 0 c-0.14 0 -0.32 -0.12 -0.38 -0.24 l-6.84 -12.74 c-0.1 -0.18 -0.34 -0.32 -0.54 -0.32 l-0.34 0 l0 13.04 c0 0.14 -0.12 0.26 -0.26 0.26 l-1.62 0 l0 -14.76 c0 -0.14 0.12 -0.26 0.26 -0.26 l2.28 0 c0.64 0 1.4 0.46 1.7 1.02 z M28.52 20 c-0.64 0 -1.16 -0.52 -1.16 -1.16 l0 -12.7 c0 -0.64 0.52 -1.16 1.16 -1.16 l6.42 0 c1.88 0 3.4 1.52 3.4 3.4 l0 8.22 c0 1.86 -1.52 3.4 -3.4 3.4 l-6.42 0 z M29.62 18.28 l5.32 0 c0.84 0 1.52 -0.68 1.52 -1.52 l0 -8.54 c0 -0.84 -0.68 -1.52 -1.52 -1.52 l-5.32 0 c-0.22 0 -0.38 0.16 -0.38 0.38 l0 10.82 c0 0.2 0.16 0.38 0.38 0.38 z M48.14 4.98 c1.88 0 3.4 1.54 3.4 3.4 l0 1.98 c0 1.86 -1.52 3.4 -3.4 3.4 l-4.38 0 c-0.62 0 -1.12 -0.36 -1.16 -0.8 l0 6.78 c0 0.14 -0.12 0.26 -0.26 0.26 l-1.62 0 l0 -13.86 c0 -0.64 0.52 -1.16 1.16 -1.16 l6.26 0 z M49.660000000000004 10.52 l0 -2.3 c0 -0.84 -0.68 -1.52 -1.52 -1.52 l-5.16 0 c-0.22 0 -0.38 0.18 -0.38 0.38 l0 4.58 c0 0.2 0.18 0.38 0.38 0.38 l0.02 0 l5.14 0 c0.84 0 1.52 -0.68 1.52 -1.52 z M61.24 20.08 l-4.52 0 c-1.88 0 -3.4 -1.52 -3.4 -3.4 l0 -8.38 c0 -1.88 1.52 -3.4 3.4 -3.4 l4.52 0 c1.86 0 3.4 1.52 3.4 3.4 l0 8.38 c0 1.88 -1.54 3.4 -3.4 3.4 z M56.72 6.619999999999999 c-0.84 0 -1.52 0.68 -1.52 1.52 l0 8.7 c0 0.84 0.68 1.52 1.52 1.52 l4.52 0 c0.84 0 1.52 -0.68 1.52 -1.52 l0 -8.7 c0 -0.84 -0.68 -1.52 -1.52 -1.52 l-4.52 0 z M67.72 20 c-0.14 0 -0.26 -0.12 -0.26 -0.26 l0 -14.76 l1.62 0 c0.14 0 0.26 0.12 0.26 0.26 l0 14.76 l-1.62 0 z M80.38 13.7 l1.82 3.58 c-0.2 -1.56 -0.2 -2.82 -0.3 -4.24 l0 -7.8 c0 -0.14 0.12 -0.26 0.26 -0.26 l1.62 0 l0 15.02 l-1.74 0 c-0.14 0 -0.32 -0.12 -0.38 -0.24 l-6.84 -12.74 c-0.1 -0.18 -0.34 -0.32 -0.54 -0.32 l-0.34 0 l0 13.04 c0 0.14 -0.12 0.26 -0.26 0.26 l-1.62 0 l0 -14.76 c0 -0.14 0.12 -0.26 0.26 -0.26 l2.28 0 c0.64 0 1.4 0.46 1.7 1.02 z M85.62 4.98 l10.64 0 l0 1.46 c0 0.14 -0.12 0.26 -0.26 0.26 l-4.28 0 l0 13.04 c0 0.14 -0.1 0.26 -0.26 0.26 l-1.62 0 l0 -13.3 l-4.48 0 l0 -1.46 c0 -0.14 0.12 -0.26 0.26 -0.26 z M113.52 5.119999999999999 l5.24 14.88 l-1.64 0 c-0.18 0 -0.32 -0.12 -0.36 -0.26 l-1.34 -3.86 l-7.64 0 l-1.34 3.86 c-0.04 0.14 -0.2 0.26 -0.36 0.26 l-1.64 0 l4.88 -13.9 c0.24 -0.66 0.86 -1.12 1.58 -1.12 l2.38 0 c0.1 0 0.2 0.06 0.24 0.14 z M108.38 14.16 l6.44 0 l-2.6 -7.46 l-0.98 0 c-0.16 0 -0.3 0.1 -0.36 0.26 z M123.74 20.08 c-1.88 0 -3.4 -1.52 -3.4 -3.4 l0 -8.38 c0 -1.88 1.52 -3.4 3.4 -3.4 l6.86 0 l0 1.46 c0 0.14 -0.12 0.26 -0.28 0.26 l-6.58 0 c-0.84 0 -1.52 0.68 -1.52 1.52 l0 8.7 c0 0.84 0.68 1.52 1.52 1.52 l4.14 0 c0.84 0 1.7 -0.68 1.7 -1.52 l0 -3.62 l-3.64 0 c-0.14 0 -0.26 -0.12 -0.26 -0.26 l0 -1.46 l5.34 0 c0.14 0 0.26 0.12 0.26 0.26 l0 5.12 c0 2.12 -1.52 3.2 -3.4 3.2 l-4.14 0 z M137.04 6.699999999999999 c-0.84 0 -1.52 0.68 -1.52 1.52 l0 3.8 c0.2 -0.24 0.56 -0.4 0.98 -0.4 l6.58 0 l0 1.46 c0 0.14 -0.12 0.26 -0.26 0.26 l-7.3 0 l0 3.42 c0 0.84 0.68 1.52 1.52 1.52 l6.48 0 c0.14 0 0.26 0.12 0.26 0.26 l0 1.46 l-6.74 0 c-1.88 0 -3.4 -1.52 -3.4 -3.4 l0 -8.22 c0 -1.88 1.52 -3.4 3.4 -3.4 l6.74 0 l0 1.46 c0 0.14 -0.12 0.26 -0.26 0.26 l-6.48 0 z M153.94 13.7 l1.82 3.58 c-0.2 -1.56 -0.2 -2.82 -0.3 -4.24 l0 -7.8 c0 -0.14 0.12 -0.26 0.26 -0.26 l1.62 0 l0 15.02 l-1.74 0 c-0.14 0 -0.32 -0.12 -0.38 -0.24 l-6.84 -12.74 c-0.1 -0.18 -0.34 -0.32 -0.54 -0.32 l-0.34 0 l0 13.04 c0 0.14 -0.12 0.26 -0.26 0.26 l-1.62 0 l0 -14.76 c0 -0.14 0.12 -0.26 0.26 -0.26 l2.28 0 c0.64 0 1.4 0.46 1.7 1.02 z M159.18 4.98 l10.64 0 l0 1.46 c0 0.14 -0.12 0.26 -0.26 0.26 l-4.28 0 l0 13.04 c0 0.14 -0.1 0.26 -0.26 0.26 l-1.62 0 l0 -13.3 l-4.48 0 l0 -1.46 c0 -0.14 0.12 -0.26 0.26 -0.26 z M182.36 4.98 l6.74 0 l0 1.46 c0 0.14 -0.12 0.26 -0.26 0.26 l-6.48 0 c-0.84 0 -1.52 0.68 -1.52 1.52 l0 3.84 c0.2 -0.26 0.58 -0.44 1 -0.44 l6.8 0 l0 1.46 c0 0.14 -0.12 0.26 -0.26 0.26 l-7.54 0 l0 6.4 c0 0.14 -0.12 0.26 -0.26 0.26 l-1.62 0 l0 -11.62 c0 -1.88 1.52 -3.4 3.4 -3.4 z M192.70000000000002 12.8 l-0.04 0 l0 6.94 c0 0.14 -0.12 0.26 -0.26 0.26 l-1.62 0 l0 -13.86 c0 -0.64 0.52 -1.16 1.16 -1.16 l6.28 0 c1.88 0 3.4 1.18 3.4 3.22 l0 1.94 c0 1.76 -1.26 2.72 -2.72 3.1 l3.2 6.76 l-1.74 0 c-0.14 0 -0.3 -0.12 -0.36 -0.24 l-3.04 -6.42 l-2.56 0 l-0.58 0 c-0.56 0 -0.98 -0.16 -1.12 -0.54 z M193.04000000000002 11.62 l5.18 0 c0.84 0 1.52 -0.68 1.52 -1.52 l0 -1.88 c0 -0.84 -0.68 -1.52 -1.52 -1.52 l-5.18 0 c-0.22 0 -0.38 0.18 -0.38 0.38 l0 4.16 c0 0.22 0.18 0.38 0.38 0.38 z M211.84 5.119999999999999 l5.24 14.88 l-1.64 0 c-0.18 0 -0.32 -0.12 -0.36 -0.26 l-1.34 -3.86 l-7.64 0 l-1.34 3.86 c-0.04 0.14 -0.2 0.26 -0.36 0.26 l-1.64 0 l4.88 -13.9 c0.24 -0.66 0.86 -1.12 1.58 -1.12 l2.38 0 c0.1 0 0.2 0.06 0.24 0.14 z M206.7 14.16 l6.44 0 l-2.6 -7.46 l-0.98 0 c-0.16 0 -0.3 0.1 -0.36 0.26 z M220.3 5 c0.2 0 0.44 0.14 0.54 0.32 l4.98 9.12 l5 -9.12 c0.1 -0.18 0.34 -0.32 0.54 -0.32 l1.4 0 c0.14 0 0.26 0.1 0.26 0.26 l0 14.72 l-1.62 0 c-0.14 0 -0.26 -0.12 -0.26 -0.26 l0 -11.68 l-4.18 7.94 c-0.08 0.14 -0.24 0.24 -0.4 0.24 l-1.46 0 c-0.16 0 -0.32 -0.1 -0.4 -0.24 l-4.18 -7.94 l0 11.68 c0 0.14 -0.12 0.26 -0.26 0.26 l-1.62 0 l0 -14.72 c0 -0.16 0.12 -0.26 0.26 -0.26 l1.4 0 z M238.85999999999999 6.699999999999999 c-0.84 0 -1.52 0.68 -1.52 1.52 l0 3.8 c0.2 -0.24 0.56 -0.4 0.98 -0.4 l6.58 0 l0 1.46 c0 0.14 -0.12 0.26 -0.26 0.26 l-7.3 0 l0 3.42 c0 0.84 0.68 1.52 1.52 1.52 l6.48 0 c0.14 0 0.26 0.12 0.26 0.26 l0 1.46 l-6.74 0 c-1.88 0 -3.4 -1.52 -3.4 -3.4 l0 -8.22 c0 -1.88 1.52 -3.4 3.4 -3.4 l6.74 0 l0 1.46 c0 0.14 -0.12 0.26 -0.26 0.26 l-6.48 0 z M262.32 4.98 l1.62 0 l0 13.86 c0 0.64 -0.52 1.16 -1.16 1.16 l-11.9 0 c-1.92 0 -3.42 -1.46 -3.42 -3.32 l0 -11.7 l1.62 0 c0.14 0 0.26 0.12 0.26 0.26 l0 11.6 c0 0.82 0.66 1.44 1.54 1.44 l4.28 0 c-0.24 -0.22 -0.4 -0.56 -0.4 -0.96 l0 -12.34 l1.62 0 c0.14 0 0.26 0.12 0.26 0.26 l0 12.66 c0 0.2 0.16 0.38 0.38 0.38 l4.66 0 c0.2 0 0.38 -0.18 0.38 -0.38 l0 -12.66 c0 -0.14 0.12 -0.26 0.26 -0.26 z M274.24 20.08 l-4.52 0 c-1.88 0 -3.4 -1.52 -3.4 -3.4 l0 -8.38 c0 -1.88 1.52 -3.4 3.4 -3.4 l4.52 0 c1.86 0 3.4 1.52 3.4 3.4 l0 8.38 c0 1.88 -1.54 3.4 -3.4 3.4 z M269.71999999999997 6.619999999999999 c-0.84 0 -1.52 0.68 -1.52 1.52 l0 8.7 c0 0.84 0.68 1.52 1.52 1.52 l4.52 0 c0.84 0 1.52 -0.68 1.52 -1.52 l0 -8.7 c0 -0.84 -0.68 -1.52 -1.52 -1.52 l-4.52 0 z M281.96 12.8 l-0.04 0 l0 6.94 c0 0.14 -0.12 0.26 -0.26 0.26 l-1.62 0 l0 -13.86 c0 -0.64 0.52 -1.16 1.16 -1.16 l6.28 0 c1.88 0 3.4 1.18 3.4 3.22 l0 1.94 c0 1.76 -1.26 2.72 -2.72 3.1 l3.2 6.76 l-1.74 0 c-0.14 0 -0.3 -0.12 -0.36 -0.24 l-3.04 -6.42 l-2.56 0 l-0.58 0 c-0.56 0 -0.98 -0.16 -1.12 -0.54 z M282.29999999999995 11.62 l5.18 0 c0.84 0 1.52 -0.68 1.52 -1.52 l0 -1.88 c0 -0.84 -0.68 -1.52 -1.52 -1.52 l-5.18 0 c-0.22 0 -0.38 0.18 -0.38 0.38 l0 4.16 c0 0.22 0.18 0.38 0.38 0.38 z M301.68 12.940000000000001 l3.14 7.06 l-1.8 0 c-0.14 0 -0.32 -0.12 -0.38 -0.24 l-2.84 -6.42 l-4.56 0 c-0.2 0 -0.38 0.18 -0.38 0.38 l0 6.02 c0 0.14 -0.12 0.26 -0.26 0.26 l-1.62 0 l0 -14.76 c0 -0.14 0.12 -0.26 0.26 -0.26 l1.62 0 l0 7.06 c0.2 -0.24 0.58 -0.42 1 -0.42 l4.22 0 c0.84 0 1.52 -0.68 1.52 -1.52 l0 -4.86 c0 -0.14 0.12 -0.26 0.28 -0.26 l1.62 0 l0 4.96 c0 1.3 -0.74 2.44 -1.82 3 z"></path></g>
			</g>
		</svg>
	